HIERARCHY
ROOT Hips
{
	OFFSET 0.000000 35.082581 0.000000
	CHANNELS 6 Xposition Yposition Zposition Xrotation Yrotation Zrotation 
	JOINT Spine
	{
		OFFSET 0.000000 6.876099 0.125700
		CHANNELS 3 Xrotation Yrotation Zrotation
		JOINT Spine1
		{
			OFFSET 0.000000 5.730043 0.104720
			CHANNELS 3 Xrotation Yrotation Zrotation
			JOINT Spine1_split
			{
				OFFSET 0.000000 5.730043 0.104720
				CHANNELS 3 Xrotation Yrotation Zrotation
				JOINT Spine2
				{
					OFFSET 0.000000 5.730043 0.104720
					CHANNELS 3 Xrotation Yrotation Zrotation
					JOINT Neck
					{
						OFFSET 0.000000 10.314075 0.188496
						CHANNELS 3 Xrotation Yrotation Zrotation
						JOINT Head
						{
							OFFSET 0.000000 7.643700 -2.377400
							CHANNELS 3 Xrotation Yrotation Zrotation
							JOINT HeadTop_End
							{
								OFFSET 0.000000 43.788605 -13.619600
								CHANNELS 3 Xrotation Yrotation Zrotation
								End Site
								{
									OFFSET 0.000000 0.000000 0.000000
								}
							}
						}
					}
					JOINT LeftShoulder
					{
						OFFSET 2.196100 4.412489 0.087492
						CHANNELS 3 Xrotation Yrotation Zrotation
						JOINT LeftShoulder_split
						{
							OFFSET 2.196100 4.412489 0.087492
							CHANNELS 3 Xrotation Yrotation Zrotation
							JOINT LeftArm
							{
								OFFSET 8.771219 -2.981674 -0.026999
								CHANNELS 3 Xrotation Yrotation Zrotation
								JOINT LeftForeArm
								{
									OFFSET 8.512804 0.000000 -0.000000
									CHANNELS 3 Xrotation Yrotation Zrotation
									JOINT LeftHand
									{
										OFFSET 18.484802 0.000000 -0.000000
										CHANNELS 3 Xrotation Yrotation Zrotation
										JOINT LeftHandThumb1
										{
											OFFSET 2.499420 -1.158070 2.653252
											CHANNELS 3 Xrotation Yrotation Zrotation
											JOINT LeftHandThumb2
											{
												OFFSET 2.370079 -1.368366 1.368366
												CHANNELS 3 Xrotation Yrotation Zrotation
												JOINT LeftHandThumb3
												{
													OFFSET 2.676727 -1.545410 1.545409
													CHANNELS 3 Xrotation Yrotation Zrotation
													JOINT LeftHandThumb4
													{
														OFFSET 1.692226 -0.977005 0.977007
														CHANNELS 3 Xrotation Yrotation Zrotation
														End Site
														{
															OFFSET 0.000000 0.000000 0.000000
														}
													}
												}
											}
										}
										JOINT LeftHandIndex1
										{
											OFFSET 7.924831 -0.457527 2.345128
											CHANNELS 3 Xrotation Yrotation Zrotation
											JOINT LeftHandIndex2
											{
												OFFSET 3.643303 0.000000 0.000000
												CHANNELS 3 Xrotation Yrotation Zrotation
												JOINT LeftHandIndex3
												{
													OFFSET 3.810799 0.000000 0.000000
													CHANNELS 3 Xrotation Yrotation Zrotation
													JOINT LeftHandIndex4
													{
														OFFSET 2.403702 0.000000 0.000000
														CHANNELS 3 Xrotation Yrotation Zrotation
														End Site
														{
															OFFSET 0.000000 0.000000 0.000000
														}
													}
												}
											}
										}
										JOINT LeftHandMiddle1
										{
											OFFSET 8.563995 0.000000 -0.000000
											CHANNELS 3 Xrotation Yrotation Zrotation
											JOINT LeftHandMiddle2
											{
												OFFSET 3.861618 0.000000 0.000000
												CHANNELS 3 Xrotation Yrotation Zrotation
												JOINT LeftHandMiddle3
												{
													OFFSET 3.701603 0.000000 0.000000
													CHANNELS 3 Xrotation Yrotation Zrotation
													JOINT LeftHandMiddle4
													{
														OFFSET 2.322544 0.000000 0.000000
														CHANNELS 3 Xrotation Yrotation Zrotation
														End Site
														{
															OFFSET 0.000000 0.000000 0.000000
														}
													}
												}
											}
										}
										JOINT LeftHandRing1
										{
											OFFSET 8.426460 -0.424637 -3.286992
											CHANNELS 3 Xrotation Yrotation Zrotation
											JOINT LeftHandRing2
											{
												OFFSET 3.126408 0.000000 0.000000
												CHANNELS 3 Xrotation Yrotation Zrotation
												JOINT LeftHandRing3
												{
													OFFSET 3.085026 0.000000 0.000000
													CHANNELS 3 Xrotation Yrotation Zrotation
													JOINT LeftHandRing4
													{
														OFFSET 1.644005 0.000000 0.000000
														CHANNELS 3 Xrotation Yrotation Zrotation
														End Site
														{
															OFFSET 0.000000 0.000000 0.000000
														}
													}
												}
											}
										}
									}
								}
							}
						}
					}
					JOINT RightShoulder
					{
						OFFSET -2.196100 4.412496 0.070690
						CHANNELS 3 Xrotation Yrotation Zrotation
						JOINT RightShoulder_split
						{
							OFFSET -2.196100 4.412496 0.070690
							CHANNELS 3 Xrotation Yrotation Zrotation
							JOINT RightArm
							{
								OFFSET -8.771282 -2.981682 -0.094208
								CHANNELS 3 Xrotation Yrotation Zrotation
								JOINT RightForeArm
								{
									OFFSET -8.494598 0.000000 0.000000
									CHANNELS 3 Xrotation Yrotation Zrotation
									JOINT RightHand
									{
										OFFSET -18.483803 0.000000 0.000001
										CHANNELS 3 Xrotation Yrotation Zrotation
										JOINT RightHandThumb1
										{
											OFFSET -2.527351 -1.008072 2.575253
											CHANNELS 3 Xrotation Yrotation Zrotation
											JOINT RightHandThumb2
											{
												OFFSET -2.321518 -1.340328 1.340329
												CHANNELS 3 Xrotation Yrotation Zrotation
												JOINT RightHandThumb3
												{
													OFFSET -2.657753 -1.534454 1.534455
													CHANNELS 3 Xrotation Yrotation Zrotation
													JOINT RightHandThumb4
													{
														OFFSET -1.807510 -1.043568 1.043567
														CHANNELS 3 Xrotation Yrotation Zrotation
														End Site
														{
															OFFSET 0.000000 0.000000 0.000000
														}
													}
												}
											}
										}
										JOINT RightHandIndex1
										{
											OFFSET -8.811420 0.015533 2.887987
											CHANNELS 3 Xrotation Yrotation Zrotation
											JOINT RightHandIndex2
											{
												OFFSET -3.537502 0.000000 0.000000
												CHANNELS 3 Xrotation Yrotation Zrotation
												JOINT RightHandIndex3
												{
													OFFSET -3.356201 0.000000 0.000000
													CHANNELS 3 Xrotation Yrotation Zrotation
													JOINT RightHandIndex4
													{
														OFFSET -1.933098 0.000000 0.000000
														CHANNELS 3 Xrotation Yrotation Zrotation
														End Site
														{
															OFFSET 0.000000 0.000000 0.000000
														}
													}
												}
											}
										}
										JOINT RightHandMiddle1
										{
											OFFSET -8.178135 0.000000 0.000000
											CHANNELS 3 Xrotation Yrotation Zrotation
											JOINT RightHandMiddle2
											{
												OFFSET -3.901302 0.000000 0.000000
												CHANNELS 3 Xrotation Yrotation Zrotation
												JOINT RightHandMiddle3
												{
													OFFSET -3.909599 0.000000 0.000000
													CHANNELS 3 Xrotation Yrotation Zrotation
													JOINT RightHandMiddle4
													{
														OFFSET -2.376003 0.000000 0.000000
														CHANNELS 3 Xrotation Yrotation Zrotation
														End Site
														{
															OFFSET 0.000000 0.000000 0.000000
														}
													}
												}
											}
										}
										JOINT RightHandRing1
										{
											OFFSET -7.559013 0.014137 -2.865403
											CHANNELS 3 Xrotation Yrotation Zrotation
											JOINT RightHandRing2
											{
												OFFSET -3.449306 0.000000 0.000000
												CHANNELS 3 Xrotation Yrotation Zrotation
												JOINT RightHandRing3
												{
													OFFSET -3.362106 0.000000 0.000000
													CHANNELS 3 Xrotation Yrotation Zrotation
													JOINT RightHandRing4
													{
														OFFSET -2.076401 0.000000 0.000000
														CHANNELS 3 Xrotation Yrotation Zrotation
														End Site
														{
															OFFSET 0.000000 0.000000 0.000000
														}
													}
												}
											}
										}
									}
								}
							}
						}
					}
				}
			}
		}
	}
	JOINT LeftUpLeg
	{
		OFFSET 10.205400 -3.823500 0.155100
		CHANNELS 3 Xrotation Yrotation Zrotation
		JOINT LeftLeg
		{
			OFFSET 0.708757 -12.982077 0.567790
			CHANNELS 3 Xrotation Yrotation Zrotation
			JOINT LeftFoot
			{
				OFFSET -0.708756 -10.717838 -2.184338
				CHANNELS 3 Xrotation Yrotation Zrotation
				JOINT LeftToeBase
				{
					OFFSET 0.108149 -7.191104 7.560241
					CHANNELS 3 Xrotation Yrotation Zrotation
					JOINT LeftToe_End
					{
						OFFSET 0.070230 0.081724 4.490308
						CHANNELS 3 Xrotation Yrotation Zrotation
						End Site
						{
							OFFSET 0.000000 0.000000 0.000000
						}
					}
				}
			}
		}
	}
	JOINT RightUpLeg
	{
		OFFSET -10.205400 -3.823500 0.005500
		CHANNELS 3 Xrotation Yrotation Zrotation
		JOINT RightLeg
		{
			OFFSET -0.708756 -12.982134 0.610632
			CHANNELS 3 Xrotation Yrotation Zrotation
			JOINT RightFoot
			{
				OFFSET 0.708754 -10.717769 -1.945823
				CHANNELS 3 Xrotation Yrotation Zrotation
				JOINT RightToeBase
				{
					OFFSET -0.108140 -7.191069 7.372968
					CHANNELS 3 Xrotation Yrotation Zrotation
					JOINT RightToe_End
					{
						OFFSET -0.070227 0.081735 4.479403
						CHANNELS 3 Xrotation Yrotation Zrotation
						End Site
						{
							OFFSET 0.000000 0.000000 0.000000
						}
					}
				}
			}
		}
	}
}
MOTION
Frames: 6
Frame Time: 0.016667
-0.774458 26.976597 0.362781 8.120376 -10.728193 3.267738 8.210781 1.472578 -1.622259 6.501512 1.669132 -0.600554 0.000000 0.000000 0.000000 6.503134 1.665273 -0.587176 -1.740223 -0.081393 0.346733 -18.113897 -0.499812 1.304437 0.000000 0.000000 -0.000000 2.609662 -14.773703 -9.661128 0.000000 0.000000 0.000000 -25.061856 -6.032405 -45.944992 -0.000003 -124.725702 0.000013 -67.570344 18.900160 22.799815 39.578744 -17.197339 -21.086394 11.236004 23.988446 2.901710 3.118779 9.520967 4.222321 -0.000005 0.000001 -0.000000 3.600004 6.051848 -61.463479 4.128141 6.308924 -66.366189 1.118828 3.767441 -33.069314 -0.000001 0.000001 0.000001 2.451404 5.270989 -49.859930 3.793776 6.152686 -63.285958 1.517078 4.316429 -38.714837 -0.000001 0.000001 -0.000000 2.452883 5.272245 -49.876066 3.792022 6.151823 -63.269784 1.517076 4.316430 -38.714824 0.000001 -0.000002 0.000000 1.602771 8.845896 9.965444 0.000000 0.000000 0.000000 3.934426 4.254974 41.144377 -0.001619 89.361844 0.001943 32.702048 19.603374 -22.590441 29.376463 16.962613 20.541343 9.559537 -25.704485 -5.659313 1.488510 -8.233526 -5.339829 -0.000003 0.000001 0.000002 2.155490 -5.036551 46.317162 4.033401 -6.309993 65.142902 1.089710 -3.742285 32.460245 0.000000 0.000001 0.000001 1.448246 -4.252497 37.599700 3.476836 -6.022593 59.964785 1.448468 -4.252774 37.602896 -0.000002 -0.000000 -0.000001 1.448249 -4.252498 37.599706 3.476839 -6.022589 59.964806 1.448462 -4.252773 37.602889 -0.000001 -0.000001 -0.000003 -57.246619 -4.766919 31.981845 56.725626 -4.132540 5.001369 -0.590962 3.463590 -30.058645 0.000026 0.000001 -0.000002 -0.000000 -0.000002 0.000000 -24.991657 3.612668 -42.492820 58.047920 9.265138 0.192861 -31.532610 -13.860867 33.028479 -0.002734 -0.000008 0.000006 0.000000 -0.000001 -0.000000 
-0.758261 26.999470 0.379038 8.146980 -10.709888 3.197698 8.187611 1.465169 -1.646261 6.485268 1.665929 -0.610208 0.000000 0.000000 0.000000 6.486866 1.662227 -0.596724 -1.712120 -0.092268 0.384981 -18.110399 -0.529395 1.344543 0.000002 0.000000 0.000000 2.607209 -14.764999 -9.614792 0.000000 0.000000 0.000000 -25.050248 -6.005737 -46.040888 -0.000027 -124.876991 -0.000020 -67.329669 18.877830 22.729360 39.578744 -17.197335 -21.086397 11.236005 23.988454 2.901706 3.118782 9.520965 4.222320 -0.000000 -0.000001 0.000003 3.600004 6.051849 -61.463479 4.128143 6.308924 -66.366189 1.118829 3.767441 -33.069317 0.000002 0.000000 0.000000 2.451403 5.270992 -49.859927 3.793778 6.152686 -63.285965 1.517082 4.316432 -38.714841 0.000001 -0.000001 0.000001 2.452886 5.272245 -49.876066 3.792023 6.151828 -63.269784 1.517077 4.316431 -38.714824 0.000001 0.000001 -0.000000 1.606122 8.884889 9.946597 0.000000 0.000000 0.000000 4.076247 4.257997 41.187642 0.001174 89.427100 -0.000557 32.911857 19.509616 -22.720510 29.376459 16.962607 20.541335 9.559539 -25.704486 -5.659310 1.488510 -8.233526 -5.339831 -0.000002 -0.000002 0.000003 2.155491 -5.036550 46.317155 4.033403 -6.309995 65.142902 1.089712 -3.742284 32.460249 0.000002 -0.000000 0.000001 1.448248 -4.252498 37.599700 3.476837 -6.022590 59.964785 1.448470 -4.252769 37.602896 -0.000001 -0.000001 -0.000000 1.448244 -4.252496 37.599706 3.476839 -6.022583 59.964799 1.448464 -4.252773 37.602889 0.000000 0.000000 -0.000000 -57.303136 -4.744531 31.952216 56.776200 -4.113444 5.089124 -0.639462 3.475782 -30.034726 0.000116 -0.000001 -0.000004 -0.000000 0.000000 0.000000 -24.871903 3.504173 -42.419621 57.730624 9.161059 0.229892 -31.328367 -13.814125 33.098468 -0.028692 0.000010 -0.000006 0.000000 0.000001 -0.000000 
-0.743610 27.014637 0.393895 8.206045 -10.715214 3.120475 8.164881 1.462286 -1.675682 6.469512 1.666597 -0.622082 0.000000 0.000000 0.000000 6.471171 1.662710 -0.608366 -1.660621 -0.094398 0.408574 -18.088769 -0.528532 1.378604 -0.000002 0.000000 -0.000000 2.606479 -14.776942 -9.549427 0.000000 0.000000 0.000000 -25.079259 -5.936104 -46.237464 0.000037 -124.947601 0.000025 -67.140370 18.934372 22.684786 39.578740 -17.197344 -21.086396 11.235998 23.988451 2.901712 3.118783 9.520972 4.222320 -0.000006 -0.000002 -0.000000 3.600000 6.051852 -61.463486 4.128144 6.308925 -66.366189 1.118831 3.767437 -33.069317 0.000000 0.000001 0.000001 2.451401 5.270994 -49.859934 3.793774 6.152683 -63.285965 1.517079 4.316432 -38.714844 0.000000 -0.000002 0.000000 2.452881 5.272246 -49.876066 3.792026 6.151827 -63.269777 1.517074 4.316430 -38.714824 -0.000001 -0.000001 0.000000 1.612945 8.972296 9.892405 0.000000 0.000000 0.000000 4.280576 4.276510 41.166602 0.002878 89.494247 -0.002372 33.037509 19.369513 -22.853921 29.376463 16.962613 20.541338 9.559545 -25.704483 -5.659317 1.488511 -8.233528 -5.339830 -0.000000 -0.000000 0.000001 2.155489 -5.036552 46.317155 4.033403 -6.309995 65.142902 1.089714 -3.742285 32.460249 0.000003 -0.000000 -0.000000 1.448240 -4.252498 37.599700 3.476835 -6.022589 59.964792 1.448468 -4.252769 37.602889 -0.000002 -0.000001 -0.000003 1.448236 -4.252498 37.599706 3.476842 -6.022585 59.964799 1.448464 -4.252775 37.602889 -0.000002 0.000000 0.000000 -57.382885 -4.794919 31.971248 56.885258 -4.072753 5.123922 -0.706917 3.495940 -30.021509 0.000076 0.000005 0.000005 -0.000000 -0.000001 -0.000000 -24.872721 3.385109 -42.331713 57.472005 9.128109 0.221210 -31.132163 -13.762440 33.153332 -0.059011 -0.000009 0.000003 0.000000 -0.000001 -0.000000 
-0.729719 27.023033 0.407461 8.254344 -10.746161 3.072372 8.143375 1.463250 -1.706394 6.454653 1.669949 -0.635076 0.000000 0.000000 0.000000 6.456424 1.665762 -0.621081 -1.598633 -0.092581 0.422501 -18.056066 -0.517752 1.411531 -0.000000 0.000000 -0.000000 2.606925 -14.801052 -9.475201 0.000000 0.000000 0.000000 -25.130223 -5.847826 -46.486438 -0.000034 -124.971261 -0.000016 -66.982005 19.038367 22.658777 39.578737 -17.197344 -21.086396 11.235999 23.988456 2.901709 3.118781 9.520974 4.222323 0.000001 -0.000002 0.000001 3.600006 6.051851 -61.463479 4.128142 6.308925 -66.366189 1.118828 3.767444 -33.069314 -0.000001 0.000001 0.000001 2.451402 5.270992 -49.859923 3.793776 6.152687 -63.285965 1.517080 4.316427 -38.714844 0.000000 0.000002 -0.000000 2.452883 5.272246 -49.876063 3.792023 6.151829 -63.269777 1.517075 4.316429 -38.714830 -0.000001 -0.000002 -0.000000 1.621848 9.085375 9.820725 0.000000 0.000000 0.000000 4.518116 4.299217 41.105209 -0.000686 89.563109 0.001258 33.107238 19.210747 -22.984650 29.376463 16.962611 20.541341 9.559545 -25.704478 -5.659318 1.488520 -8.233521 -5.339831 0.000003 0.000003 -0.000000 2.155493 -5.036551 46.317159 4.033403 -6.309999 65.142902 1.089713 -3.742285 32.460245 -0.000001 0.000001 -0.000000 1.448242 -4.252499 37.599700 3.476836 -6.022588 59.964785 1.448468 -4.252772 37.602889 0.000001 -0.000001 -0.000003 1.448250 -4.252498 37.599710 3.476837 -6.022582 59.964799 1.448462 -4.252773 37.602889 0.000002 -0.000001 -0.000001 -57.386122 -4.893670 32.007253 56.989862 -4.009883 5.074648 -0.797483 3.522660 -30.018582 0.000065 0.000005 0.000006 0.000000 -0.000002 0.000000 -24.896922 3.331298 -42.281002 57.288966 9.126535 0.210543 -30.970332 -13.722283 33.205627 -0.085846 0.000006 -0.000001 0.000000 -0.000000 -0.000000 
-0.717292 27.025452 0.419086 8.253904 -10.803780 3.037429 8.124698 1.468682 -1.739139 6.441681 1.676749 -0.649059 0.000000 0.000000 0.000000 6.443582 1.672274 -0.634775 -1.530189 -0.088175 0.425715 -18.010343 -0.506131 1.446723 0.000000 0.000000 -0.000000 2.608812 -14.838630 -9.394285 0.000000 0.000000 0.000000 -25.202307 -5.748887 -46.782254 -0.000048 -124.946290 -0.000028 -66.856432 19.194341 22.657865 39.578740 -17.197342 -21.086392 11.236003 23.988451 2.901710 3.118781 9.520970 4.222322 -0.000002 -0.000004 0.000001 3.599998 6.051848 -61.463479 4.128143 6.308925 -66.366189 1.118832 3.767438 -33.069310 0.000000 0.000000 0.000002 2.451396 5.270994 -49.859927 3.793777 6.152686 -63.285965 1.517080 4.316432 -38.714844 0.000001 0.000002 -0.000000 2.452880 5.272246 -49.876070 3.792023 6.151823 -63.269777 1.517076 4.316429 -38.714827 0.000001 0.000000 -0.000000 1.632853 9.221994 9.735128 0.000000 0.000000 0.000000 4.785603 4.318985 40.998385 0.002396 89.635004 -0.001560 33.108393 19.043983 -23.106226 29.376466 16.962614 20.541336 9.559534 -25.704478 -5.659316 1.488515 -8.233522 -5.339833 -0.000003 -0.000003 0.000003 2.155499 -5.036551 46.317155 4.033406 -6.309995 65.142902 1.089712 -3.742286 32.460242 0.000001 0.000001 0.000002 1.448243 -4.252496 37.599700 3.476837 -6.022593 59.964785 1.448470 -4.252772 37.602896 0.000001 0.000000 0.000001 1.448245 -4.252496 37.599706 3.476837 -6.022586 59.964799 1.448463 -4.252773 37.602893 0.000002 0.000001 0.000001 -57.297029 -5.023408 32.061249 57.121944 -3.913869 4.973121 -0.916538 3.558801 -30.026471 0.000082 0.000004 -0.000002 0.000000 -0.000001 0.000000 -24.885028 3.334216 -42.263025 57.163489 9.145408 0.224678 -30.850721 -13.692787 33.247691 -0.101861 -0.000005 -0.000001 0.000000 -0.000000 -0.000000 
-0.703846 27.026573 0.429731 8.283665 -10.842244 3.002714 8.110289 1.478211 -1.773089 6.431511 1.687193 -0.663702 0.000000 0.000000 0.000000 6.433501 1.682589 -0.649155 -1.461471 -0.083127 0.418180 -17.951769 -0.504442 1.486979 -0.000000 -0.000001 0.000000 2.612174 -14.888091 -9.310871 0.000000 0.000000 0.000000 -25.290148 -5.650528 -47.109235 -0.000030 -124.877523 -0.000015 -66.762422 19.399006 22.685744 39.578744 -17.197344 -21.086396 11.235995 23.988454 2.901708 3.118778 9.520975 4.222323 0.000001 -0.000002 -0.000004 3.600002 6.051850 -61.463479 4.128142 6.308924 -66.366189 1.118829 3.767441 -33.069317 -0.000002 0.000001 0.000000 2.451404 5.270995 -49.859927 3.793773 6.152690 -63.285958 1.517079 4.316430 -38.714837 0.000001 0.000001 -0.000001 2.452883 5.272246 -49.876063 3.792021 6.151825 -63.269784 1.517076 4.316429 -38.714830 0.000001 0.000001 -0.000000 1.645613 9.375564 9.642415 0.000000 0.000000 0.000000 5.074294 4.329360 40.844326 0.001687 89.710081 -0.000677 33.036549 18.884802 -23.212234 29.376459 16.962604 20.541336 9.559535 -25.704485 -5.659316 1.488511 -8.233522 -5.339830 0.000004 0.000002 0.000001 2.155495 -5.036552 46.317155 4.033406 -6.309999 65.142902 1.089710 -3.742286 32.460249 0.000001 -0.000000 -0.000001 1.448244 -4.252498 37.599700 3.476836 -6.022594 59.964792 1.448469 -4.252769 37.602893 0.000001 -0.000000 -0.000001 1.448246 -4.252498 37.599706 3.476840 -6.022587 59.964799 1.448464 -4.252772 37.602889 0.000001 0.000000 -0.000000 -57.275654 -5.146479 32.092467 57.244492 -3.846675 4.907859 -1.013041 3.588468 -30.037041 0.000081 0.000000 0.000002 0.000000 -0.000000 0.000000 -24.940583 3.291614 -42.210057 57.067518 9.154074 0.134612 -30.726330 -13.678688 33.332617 -0.123720 0.000005 0.000004 0.000000 -0.000005 -0.000000 
